<svg width="102" height="95" viewBox="0 0 102 95" fill="none" xmlns="http://www.w3.org/2000/svg">
<path d="M92.8977 40.262C98.5642 40.262 101.397 37.4287 101.397 31.7622V8.71821C101.397 3.05166 98.5642 0.218384 92.8977 0.218384H70.987C65.3205 0.218384 62.4872 3.05166 62.4872 8.71821V31.7622C62.4872 44.9841 63.8723 56.5061 66.6426 66.3281C69.5389 76.276 75.1425 84.9648 83.4534 92.3942C86.2237 94.7868 88.5533 95.1016 90.4421 93.3387L98.942 85.4055C100.831 83.6426 100.39 81.5019 97.6198 78.9834C93.3384 75.2057 89.8125 69.728 87.0422 62.5504C84.3978 55.4987 83.0756 48.0692 83.0756 40.262H92.8977ZM30.5656 40.262C36.2322 40.262 39.0654 37.4287 39.0654 31.7622V8.71821C39.0654 3.05166 36.2322 0.218384 30.5656 0.218384H8.65497C2.98843 0.218384 0.155151 3.05166 0.155151 8.71821V31.7622C0.155151 44.9841 1.54031 56.5061 4.31062 66.3281C7.20686 76.276 12.8104 84.9648 21.1214 92.3942C23.8917 94.7868 26.2213 95.1016 28.1101 93.3387L36.6099 85.4055C38.4988 83.6426 38.0581 81.5019 35.2877 78.9834C31.0064 75.2057 27.4805 69.728 24.7102 62.5504C22.0658 55.4987 20.7436 48.0692 20.7436 40.262H30.5656Z" fill="white"/>
</svg>
